<?xml version="1.0" encoding="UTF-8"?>
<svg width="958px" height="164px" viewBox="0 0 958 164" version="1.1" xmlns="http://www.w3.org/2000/svg" xmlns:xlink="http://www.w3.org/1999/xlink">
    <!-- Generator: Sketch 52.6 (67491) - http://www.bohemiancoding.com/sketch -->
    <title>Untitled 3</title>
    <desc>Created with Sketch.</desc>
    <defs>
        <linearGradient x1="-201.230344%" y1="296.882869%" x2="282.947673%" y2="-178.946954%" id="linearGradient-1">
            <stop stop-color="#012FD0" offset="0%"></stop>
            <stop stop-color="#0134CF" offset="10%"></stop>
            <stop stop-color="#00D3A7" offset="90%"></stop>
            <stop stop-color="#00D3A7" offset="100%"></stop>
        </linearGradient>
        <linearGradient x1="-79.9818933%" y1="128.038736%" x2="107.8045%" y2="24.2756914%" id="linearGradient-2">
            <stop stop-color="#012FD0" offset="0%"></stop>
            <stop stop-color="#0134CF" offset="10%"></stop>
            <stop stop-color="#00D3A7" offset="90%"></stop>
            <stop stop-color="#00D3A7" offset="100%"></stop>
        </linearGradient>
        <linearGradient x1="-14.9899626%" y1="79.6163172%" x2="172.796431%" y2="-24.0457678%" id="linearGradient-3">
            <stop stop-color="#012FD0" offset="0%"></stop>
            <stop stop-color="#0134CF" offset="10%"></stop>
            <stop stop-color="#00D3A7" offset="90%"></stop>
            <stop stop-color="#00D3A7" offset="100%"></stop>
        </linearGradient>
    </defs>
    <g id="Page-1" stroke="none" stroke-width="1" fill="none" fill-rule="evenodd">
        <g id="new_logo">
            <g id="Group">
                <path d="M92.5,71.54 C88.4,67.45 82.49,66.27 77.34,67.99 C75.23,68.69 73.25,69.87 71.57,71.54 C69.89,73.21 68.72,75.2 68.02,77.31 C66.3,82.46 67.48,88.38 71.57,92.47 C75.66,96.56 81.58,97.74 86.73,96.02 C88.84,95.32 90.82,94.14 92.5,92.47 C94.18,90.79 95.35,88.81 96.05,86.7 C97.77,81.54 96.59,75.63 92.5,71.54 Z" id="Path" fill="url(#linearGradient-1)"></path>
                <path d="M123.33,71.75 L103.02,51.44 C99.77,48.19 99.77,42.9 103.02,39.65 L124.65,18.01 C130.54,12.12 140.13,12.12 146.03,18.01 C151.92,23.9 151.92,33.49 146.03,39.39 L132.04,53.38 C129.47,55.95 129.47,60.12 132.04,62.7 C134.61,65.27 138.78,65.27 141.36,62.7 L155.35,48.71 C166.38,37.68 166.38,19.73 155.35,8.7 C144.32,-2.33 126.37,-2.33 115.34,8.7 L93.7,30.34 C85.31,38.73 85.31,52.38 93.7,60.77 L98.49,65.56 C98.49,65.56 98.49,65.56 98.49,65.56 C98.49,65.56 98.49,65.56 98.49,65.56 L114.01,81.08 L141.52,108.59 C143.11,110.18 143.98,112.29 143.96,114.54 C143.95,116.79 143.06,118.89 141.45,120.46 C138.2,123.64 132.94,123.6 129.73,120.39 L102.48,93.14 C101.44,95.05 100.11,96.85 98.5,98.47 C96.88,100.09 95.08,101.41 93.17,102.46 L120.42,129.71 C128.71,138 142.28,138.08 150.67,129.89 C154.81,125.84 157.12,120.42 157.15,114.63 C157.18,108.84 154.95,103.39 150.85,99.29 L123.33,71.75 Z" id="Path" fill="url(#linearGradient-2)"></path>
                <path d="M65.58,98.45 L50.23,83.1 L22.42,55.29 C19.17,52.04 19.17,46.75 22.42,43.5 C25.67,40.25 30.96,40.25 34.21,43.5 L61.59,70.88 C62.63,68.97 63.96,67.17 65.58,65.55 C67.2,63.93 69,62.61 70.91,61.56 L43.53,34.18 C35.14,25.79 21.49,25.79 13.1,34.18 C4.71,42.57 4.71,56.22 13.1,64.61 L40.91,92.42 L61.05,112.56 C64.3,115.81 64.3,121.1 61.05,124.35 L39.42,145.99 C33.53,151.88 23.94,151.88 18.05,145.99 C12.16,140.1 12.16,130.51 18.05,124.61 L32.03,110.63 C34.6,108.06 34.6,103.89 32.03,101.31 C29.46,98.74 25.29,98.74 22.71,101.31 L8.73,115.29 C-2.3,126.32 -2.3,144.27 8.73,155.3 C19.76,166.33 37.71,166.33 48.74,155.3 L70.38,133.66 C78.77,125.27 78.77,111.62 70.38,103.23 L65.58,98.45 Z" id="Path" fill="url(#linearGradient-3)"></path>
            </g>
            <g id="Group" transform="translate(223.000000, 35.000000)" fill="#111F59">
                <path d="M6.96,4.65 L0.33,4.65 L0.33,0.57 L29.41,0.57 C41.86,0.57 51.15,8.43 51.15,21.39 C51.15,34.35 41.86,42.41 29.41,42.41 L11.35,42.41 L11.35,72 L6.96,72 L6.96,4.65 Z M29.2,38.33 C39.61,38.33 46.55,32.11 46.55,21.39 C46.55,10.68 39.61,4.66 29.2,4.66 L11.34,4.66 L11.34,38.33 L29.2,38.33 Z" id="Shape" fill-rule="nonzero"></path>
                <path d="M62.47,6.69 C62.47,5.16 61.65,4.45 60.22,4.45 L55.83,4.45 L55.83,0.57 L60.83,0.57 C65.01,0.57 66.75,2.3 66.75,6.18 L66.75,29.45 C66.75,31.8 66.55,33.63 66.55,33.63 L66.75,33.63 C68.49,28.83 75.42,19.75 88.18,19.75 C101.45,19.75 105.02,27.61 105.02,39.65 L105.02,65.87 C105.02,67.4 105.84,68.11 107.26,68.11 L111.65,68.11 L111.65,72 L106.65,72 C102.47,72 100.73,70.27 100.73,66.08 L100.73,41.18 C100.73,32.3 99.61,23.93 88.18,23.93 C78.59,23.93 70.12,30.67 67.57,40.16 C66.96,42.3 66.75,44.65 66.75,47.1 L66.75,72 L62.47,72 L62.47,6.69 Z" id="Path"></path>
                <path d="M147.98,40.88 L151.35,40.88 L151.35,40.17 C151.35,28.03 147.17,23.74 136.55,23.74 C133.9,23.74 125.22,24.45 125.22,28.74 L125.22,32.21 L120.93,32.21 L120.93,27.52 C120.93,21.5 132.46,19.76 136.64,19.76 C152.25,19.76 155.62,28.23 155.62,39.05 L155.62,65.89 C155.62,67.42 156.44,68.13 157.87,68.13 L162.26,68.13 L162.26,72 L157.26,72 C153.08,72 151.34,70.37 151.34,65.78 C151.34,63.02 151.54,61.19 151.54,61.19 L151.34,61.19 C151.44,61.19 146.95,73.23 133.69,73.23 C125.42,73.23 116.34,68.64 116.34,58.43 C116.35,41.08 138.9,40.88 147.98,40.88 Z M133.9,69.25 C145.02,69.25 151.35,57.72 151.35,47.62 L151.35,44.86 L148.08,44.86 C139.41,44.86 120.83,44.86 120.83,58.13 C120.84,63.53 125.23,69.25 133.9,69.25 Z" id="Shape" fill-rule="nonzero"></path>
                <path d="M173.6,27.1 C173.6,25.57 172.78,24.86 171.35,24.86 L166.96,24.86 L166.96,20.98 L171.96,20.98 C176.14,20.98 177.88,22.71 177.88,26.59 L177.88,30.16 C177.88,32.51 177.68,34.34 177.68,34.34 L177.88,34.34 C180.43,26.48 185.94,20.56 194,20.56 C195.53,20.56 196.96,20.87 196.96,20.87 L196.96,25.15 C196.96,25.15 195.74,24.95 194.61,24.95 C186.65,24.95 181.65,31.68 179.41,39.24 C178.29,42.81 177.88,46.59 177.88,49.95 L177.88,72 L173.6,72 L173.6,27.1 Z" id="Path"></path>
                <path d="M210.64,27.1 C210.64,25.57 209.82,24.86 208.39,24.86 L204,24.86 L204,20.98 L209,20.98 C213.18,20.98 214.92,22.71 214.92,26.59 L214.92,29.45 C214.92,31.8 214.72,33.63 214.72,33.63 L214.92,33.63 C217.47,25.98 226.35,19.75 234.31,19.75 C244.51,19.75 249.31,24.55 250.43,33.63 L250.63,33.63 C253.49,25.98 261.24,19.75 270.02,19.75 C283.18,19.75 287.06,27.51 287.06,39.65 L287.06,65.87 C287.06,67.4 287.88,68.11 289.3,68.11 L293.69,68.11 L293.69,72 L288.69,72 C284.51,72 282.77,70.27 282.77,66.08 L282.77,41.18 C282.77,31.59 280.83,23.73 270.02,23.73 C261.55,23.73 254.31,31.28 252.06,39.24 C251.35,41.59 251.04,44.14 251.04,47.1 L251.04,72 L246.76,72 L246.76,41.18 C246.76,32.4 245.53,23.73 234.31,23.73 C225.23,23.73 218.08,31.69 215.74,40.16 C215.13,42.3 214.92,44.65 214.92,47.1 L214.92,72 L210.64,72 L210.64,27.1 Z" id="Path"></path>
                <path d="M330.03,40.88 L333.4,40.88 L333.4,40.17 C333.4,28.03 329.22,23.74 318.6,23.74 C315.95,23.74 307.27,24.45 307.27,28.74 L307.27,32.21 L302.98,32.21 L302.98,27.52 C302.98,21.5 314.51,19.76 318.69,19.76 C334.3,19.76 337.67,28.23 337.67,39.05 L337.67,65.89 C337.67,67.42 338.49,68.13 339.92,68.13 L344.31,68.13 L344.31,72 L339.31,72 C335.13,72 333.39,70.37 333.39,65.78 C333.39,63.02 333.59,61.19 333.59,61.19 L333.39,61.19 C333.49,61.19 329,73.23 315.74,73.23 C307.47,73.23 298.39,68.64 298.39,58.43 C298.4,41.08 320.95,40.88 330.03,40.88 Z M315.95,69.25 C327.07,69.25 333.4,57.72 333.4,47.62 L333.4,44.86 L330.13,44.86 C321.46,44.86 302.88,44.86 302.88,58.13 C302.89,63.53 307.28,69.25 315.95,69.25 Z" id="Shape" fill-rule="nonzero"></path>
                <path d="M375.34,19.75 C380.85,19.75 393.3,22.1 393.3,30.36 L393.3,34.24 L389.01,34.24 L389.01,31.28 C389.01,26.28 380.24,23.93 375.34,23.93 C363.4,23.93 353.5,32.81 353.5,46.58 C353.5,60.15 363.4,69.03 375.34,69.03 C386.56,69.03 392.38,61.68 392.38,61.68 L394.62,65.25 C394.62,65.25 387.99,73.21 375.34,73.21 C360.95,73.21 349.01,62.8 349.01,46.58 C349.02,30.37 361.16,19.75 375.34,19.75 Z" id="Path"></path>
                <path d="M409.53,89.35 C414.43,89.35 417.49,84.96 419.53,80.17 L423.2,71.7 L404.73,27.31 C403.91,25.37 402.79,24.86 400.85,24.86 L400.03,24.86 L400.03,20.98 L400.75,20.98 C405.85,20.98 407.08,21.9 409.12,26.9 L423.61,61.7 C424.63,64.15 425.35,66.5 425.35,66.5 L425.55,66.5 C425.55,66.5 426.26,64.15 427.28,61.7 L441.67,26.9 C443.71,21.9 444.94,20.98 450.04,20.98 L450.75,20.98 L450.75,24.86 L449.93,24.86 C447.99,24.86 446.87,25.37 446.05,27.31 L422.48,83.94 C420.23,89.25 415.95,93.43 409.52,93.43 C402.89,93.43 399.32,88.63 399.32,88.63 L401.87,85.36 C401.88,85.47 405.14,89.35 409.53,89.35 Z" id="Path"></path>
                <path d="M466.47,33.22 C466.47,31.69 465.65,30.98 464.23,30.98 L460.15,30.98 L460.15,19.96 L472.09,19.96 C476.68,19.96 478.93,22.1 478.93,25.78 L478.93,27.31 C478.93,28.43 478.83,29.55 478.83,29.55 L479.03,29.55 C481.48,24.45 487.7,18.73 495.87,18.73 C503.73,18.73 508.83,22.4 511.07,29.44 L511.27,29.44 C514.02,23.83 520.76,18.73 529.03,18.73 C539.85,18.73 546.07,24.85 546.07,38.53 L546.07,58.84 C546.07,60.27 546.89,61.08 548.31,61.08 L552.29,61.08 L552.29,72 L540.05,72 C535.15,72 533.11,69.96 533.11,65.06 L533.11,40.98 C533.11,35.06 531.99,30.57 525.97,30.57 C519.54,30.57 514.95,35.98 513.52,42.51 C512.91,44.55 512.7,46.69 512.7,49.14 L512.7,72 L499.74,72 L499.74,40.98 C499.74,35.37 498.92,30.57 492.7,30.57 C486.17,30.57 481.78,35.98 480.15,42.61 C479.64,44.65 479.33,46.79 479.33,49.14 L479.33,72 L466.47,72 L466.47,33.22 Z" id="Path"></path>
                <path d="M587.9,39.35 L589.53,39.35 L589.53,38.94 C589.53,31.49 586.57,28.74 579.94,28.74 C577.59,28.74 573,29.35 573,32.21 L573,34.97 L560.96,34.97 L560.96,29.46 C560.96,19.77 574.63,18.75 580.04,18.75 C597.39,18.75 602.49,27.83 602.49,39.46 L602.49,58.85 C602.49,60.28 603.31,61.09 604.73,61.09 L608.81,61.09 L608.81,72 L597.18,72 C592.38,72 590.55,69.35 590.55,66.29 C590.55,64.96 590.65,64.05 590.65,64.05 L590.45,64.05 C590.45,64.05 586.47,73.23 574.74,73.23 C565.45,73.23 556.98,67.41 556.98,57.01 C556.98,40.67 579.44,39.35 587.9,39.35 Z M577.9,63.12 C584.84,63.12 589.74,55.77 589.74,49.45 L589.74,48.23 L587.5,48.23 C580.76,48.23 570.05,49.15 570.05,56.39 C570.05,59.86 572.6,63.12 577.9,63.12 Z" id="Shape" fill-rule="nonzero"></path>
                <path d="M619.84,33.22 C619.84,31.69 619.02,30.98 617.6,30.98 L613.52,30.98 L613.52,19.96 L625.36,19.96 C629.95,19.96 632.3,21.9 632.3,26.29 L632.3,29.35 C632.3,31.29 632.1,32.62 632.1,32.62 L632.3,32.62 C634.65,25.17 640.87,19.25 648.83,19.25 C649.95,19.25 651.18,19.45 651.18,19.45 L651.18,32.21 C651.18,32.21 649.85,32.01 648.02,32.01 C642.51,32.01 636.18,35.17 633.84,42.93 C633.13,45.48 632.72,48.34 632.72,51.4 L632.72,72 L619.86,72 L619.86,33.22 L619.84,33.22 Z" id="Path"></path>
                <path d="M662.6,30.27 L655.86,30.27 L655.86,19.96 L662.9,19.96 L662.9,5.78 L675.55,5.78 L675.55,19.96 L687.39,19.96 L687.39,30.27 L675.55,30.27 L675.55,51.29 C675.55,59.86 682.29,61.09 685.86,61.09 C687.29,61.09 688.21,60.89 688.21,60.89 L688.21,72.22 C688.21,72.22 686.58,72.53 684.23,72.53 C676.98,72.53 662.6,70.39 662.6,52.94 L662.6,30.27 Z" id="Path"></path>
                <path d="M699.03,55.47 C699.03,55.47 705.66,63.12 714.54,63.12 C718.52,63.12 721.58,61.49 721.58,58.02 C721.58,50.67 694.13,50.78 694.13,33.94 C694.13,23.53 703.52,18.74 714.33,18.74 C721.37,18.74 732.6,21.09 732.6,29.56 L732.6,34.97 L721.17,34.97 L721.17,32.42 C721.17,29.97 717.5,28.75 714.64,28.75 C710.05,28.75 706.88,30.38 706.88,33.44 C706.88,41.6 734.53,39.97 734.53,57.32 C734.53,67.12 725.86,73.24 714.53,73.24 C700.24,73.24 692.9,63.95 692.9,63.95 L699.03,55.47 Z" id="Path"></path>
            </g>
        </g>
    </g>
</svg>